REM DIRINDEX 1\2\3,1\2\4,1\2\5,1\2\6
REM DIRNAME cjc157,folder01,folder02,folder03,folder04,folder05
TITLE ""
FILE "178 178.mp3" MP3
  TRACK 01 AUDIO
    TITLE "0:"
    INDEX 01 00:00:00
  TRACK 02 AUDIO
    TITLE "3:cjc157_6454"
    INDEX 01 00:00:09
  TRACK 03 AUDIO
    TITLE "0:"
    INDEX 01 00:01:44
  TRACK 04 AUDIO
    TITLE "4:cjc157_6455"
    INDEX 01 00:02:16
  TRACK 05 AUDIO
    TITLE "0:"
    INDEX 01 00:03:55
  TRACK 06 AUDIO
    TITLE "5:cjc157_6456"
    INDEX 01 00:04:25
  TRACK 07 AUDIO
    TITLE "0:"
    INDEX 01 00:08:09
  TRACK 08 AUDIO
    TITLE "5:cjc157_6457"
    INDEX 01 00:08:52
  TRACK 09 AUDIO
    TITLE "0:"
    INDEX 01 00:11:70
  TRACK 10 AUDIO
    TITLE "3:cjc157_6458"
    INDEX 01 00:12:38
  TRACK 11 AUDIO
    TITLE "0:"
    INDEX 01 00:13:67
  TRACK 12 AUDIO
    TITLE "4:cjc157_6459"
    INDEX 01 00:14:39
  TRACK 13 AUDIO
    TITLE "0:"
    INDEX 01 00:16:04
  TRACK 14 AUDIO
    TITLE "5:cjc157_6460"
    INDEX 01 00:16:48
  TRACK 15 AUDIO
    TITLE "0:"
    INDEX 01 00:19:24
  TRACK 16 AUDIO
    TITLE "3:cjc157_6461"
    INDEX 01 00:19:73
  TRACK 17 AUDIO
    TITLE "0:"
    INDEX 01 00:22:19
  TRACK 18 AUDIO
    TITLE "4:cjc157_6462"
    INDEX 01 00:22:64
  TRACK 19 AUDIO
    TITLE "0:"
    INDEX 01 00:25:07
  TRACK 20 AUDIO
    TITLE "5:cjc157_6463"
    INDEX 01 00:25:54
  TRACK 21 AUDIO
    TITLE "0:"
    INDEX 01 00:28:62
  TRACK 22 AUDIO
    TITLE "3:cjc157_6464"
    INDEX 01 00:29:34
  TRACK 23 AUDIO
    TITLE "0:"
    INDEX 01 00:30:67
  TRACK 24 AUDIO
    TITLE "4:cjc157_6465"
    INDEX 01 00:31:37
  TRACK 25 AUDIO
    TITLE "0:"
    INDEX 01 00:32:74
  TRACK 26 AUDIO
    TITLE "5:cjc157_6466"
    INDEX 01 00:33:46
  TRACK 27 AUDIO
    TITLE "0:"
    INDEX 01 00:36:48
  TRACK 28 AUDIO
    TITLE "5:cjc157_6467"
    INDEX 01 00:37:20
  TRACK 29 AUDIO
    TITLE "0:"
    INDEX 01 00:40:28
  TRACK 30 AUDIO
    TITLE "5:cjc157_6468"
    INDEX 01 00:40:72
  TRACK 31 AUDIO
    TITLE "0:"
    INDEX 01 00:43:13
  TRACK 32 AUDIO
    TITLE "3:cjc157_6469"
    INDEX 01 00:43:62
  TRACK 33 AUDIO
    TITLE "0:"
    INDEX 01 00:45:16
  TRACK 34 AUDIO
    TITLE "4:cjc157_6470"
    INDEX 01 00:45:61
  TRACK 35 AUDIO
    TITLE "0:"
    INDEX 01 00:47:13
  TRACK 36 AUDIO
    TITLE "5:cjc157_6471"
    INDEX 01 00:47:64
  TRACK 37 AUDIO
    TITLE "0:"
    INDEX 01 00:51:30
  TRACK 38 AUDIO
    TITLE "5:cjc157_6472"
    INDEX 01 00:52:00
  TRACK 39 AUDIO
    TITLE "0:"
    INDEX 01 00:56:35
  TRACK 40 AUDIO
    TITLE "3:cjc157_6473"
    INDEX 01 00:57:05
  TRACK 41 AUDIO
    TITLE "0:"
    INDEX 01 00:58:56
  TRACK 42 AUDIO
    TITLE "4:cjc157_6474"
    INDEX 01 00:59:28
  TRACK 43 AUDIO
    TITLE "0:"
    INDEX 01 01:00:47
  TRACK 44 AUDIO
    TITLE "5:cjc157_6475"
    INDEX 01 01:01:19
  TRACK 45 AUDIO
    TITLE "0:"
    INDEX 01 01:04:60
  TRACK 46 AUDIO
    TITLE "5:cjc157_6476"
    INDEX 01 01:05:24
  TRACK 47 AUDIO
    TITLE "0:"
    INDEX 01 01:08:70
  TRACK 48 AUDIO
    TITLE "3:cjc157_6477"
    INDEX 01 01:09:36
  TRACK 49 AUDIO
    TITLE "0:"
    INDEX 01 01:10:65
  TRACK 50 AUDIO
    TITLE "4:cjc157_6478"
    INDEX 01 01:11:35
  TRACK 51 AUDIO
    TITLE "0:"
    INDEX 01 01:12:71
  TRACK 52 AUDIO
    TITLE "5:cjc157_6479"
    INDEX 01 01:13:40
  TRACK 53 AUDIO
    TITLE "0:"
    INDEX 01 01:17:26
  TRACK 54 AUDIO
    TITLE "3:cjc157_6480"
    INDEX 01 01:18:07
  TRACK 55 AUDIO
    TITLE "0:"
    INDEX 01 01:19:21
  TRACK 56 AUDIO
    TITLE "4:cjc157_6481"
    INDEX 01 01:19:66
  TRACK 57 AUDIO
    TITLE "0:"
    INDEX 01 01:21:27
  TRACK 58 AUDIO
    TITLE "5:cjc157_6482"
    INDEX 01 01:21:72
  TRACK 59 AUDIO
    TITLE "0:"
    INDEX 01 01:25:51
  TRACK 60 AUDIO
    TITLE "3:cjc157_6483"
    INDEX 01 01:26:21
  TRACK 61 AUDIO
    TITLE "0:"
    INDEX 01 01:27:51
  TRACK 62 AUDIO
    TITLE "4:cjc157_6484"
    INDEX 01 01:28:25
  TRACK 63 AUDIO
    TITLE "0:"
    INDEX 01 01:29:46
  TRACK 64 AUDIO
    TITLE "5:cjc157_6485"
    INDEX 01 01:30:17
  TRACK 65 AUDIO
    TITLE "0:"
    INDEX 01 01:33:27
  TRACK 66 AUDIO
    TITLE "5:cjc157_6486"
    INDEX 01 01:33:74
  TRACK 67 AUDIO
    TITLE "0:"
    INDEX 01 01:37:68
  TRACK 68 AUDIO
    TITLE "5:cjc157_6487"
    INDEX 01 01:38:38
  TRACK 69 AUDIO
    TITLE "0:"
    INDEX 01 01:40:48
  TRACK 70 AUDIO
    TITLE "3:cjc157_6488"
    INDEX 01 01:41:26
  TRACK 71 AUDIO
    TITLE "0:"
    INDEX 01 01:42:57
  TRACK 72 AUDIO
    TITLE "4:cjc157_6489"
    INDEX 01 01:43:27
  TRACK 73 AUDIO
    TITLE "0:"
    INDEX 01 01:44:50
  TRACK 74 AUDIO
    TITLE "5:cjc157_6490"
    INDEX 01 01:45:20
  TRACK 75 AUDIO
    TITLE "0:"
    INDEX 01 01:48:65
  TRACK 76 AUDIO
    TITLE "5:cjc157_6491"
    INDEX 01 01:49:33
  TRACK 77 AUDIO
    TITLE "0:"
    INDEX 01 01:53:20
  TRACK 78 AUDIO
    TITLE "5:cjc157_6492"
    INDEX 01 01:53:69
  TRACK 79 AUDIO
    TITLE "0:"
    INDEX 01 01:58:01
